<svg aria-hidden="true" style="width:0;height:0;position:absolute;overflow:hidden" xmlns="http://www.w3.org/2000/svg"><defs><symbol id="vector" viewBox="0 0 32 32"><path fill="#ff6b08" style="fill:var(--color1,#ff6b08)" d="m16 30.144-2.24-2.218C5.44 20.639 0 15.728 0 9.708 0 4.797 3.84.995 8.8.995c2.72 0 5.44 1.267 7.2 3.327C17.76 2.263 20.48.995 23.2.995c4.96 0 8.8 3.802 8.8 8.713 0 6.02-5.44 10.931-13.76 18.218L16 30.144z"/></symbol><symbol id="github" viewBox="0 0 32 32"><path d="M16 .395c-8.836 0-16 7.163-16 16 0 7.069 4.585 13.067 10.942 15.182.8.148 1.094-.347 1.094-.77 0-.381-.015-1.642-.022-2.979-4.452.968-5.391-1.888-5.391-1.888-.728-1.849-1.776-2.341-1.776-2.341-1.452-.993.11-.973.11-.973 1.606.113 2.452 1.649 2.452 1.649 1.427 2.446 3.743 1.739 4.656 1.33.143-1.034.558-1.74 1.016-2.14-3.554-.404-7.29-1.777-7.29-7.907 0-1.747.625-3.174 1.649-4.295-.166-.403-.714-2.03.155-4.234 0 0 1.344-.43 4.401 1.64a15.353 15.353 0 0 1 4.005-.539c1.359.006 2.729.184 4.008.539 3.054-2.07 4.395-1.64 4.395-1.64.871 2.204.323 3.831.157 4.234 1.026 1.12 1.647 2.548 1.647 4.295 0 6.145-3.743 7.498-7.306 7.895.574.497 1.085 1.47 1.085 2.963 0 2.141-.019 3.864-.019 4.391 0 .426.288.925 1.099.768C27.421 29.457 32 23.462 32 16.395c0-8.837-7.164-16-16-16z"/></symbol><symbol id="icon-film" viewBox="0 0 32 32"><path fill="none" stroke-width="2.667" d="M26.427 2.667H5.574a2.907 2.907 0 0 0-2.907 2.907v20.853a2.907 2.907 0 0 0 2.907 2.907h20.853a2.907 2.907 0 0 0 2.907-2.907V5.574a2.907 2.907 0 0 0-2.907-2.907zm-17.094 0v26.667M22.667 2.667v26.667M2.667 16h26.667M2.667 9.333h6.667M2.667 22.667h6.667m13.333 0h6.667M22.667 9.333h6.667"/></symbol><symbol id="up-button" viewBox="0 0 32 32"><path d="M20.928 14.272a.619.619 0 0 1 0 .896c-.128.128-.288.192-.448.192s-.32-.064-.448-.192l-3.392-3.392v9.984c0 .352-.288.64-.64.64s-.64-.288-.64-.64v-9.984l-3.392 3.392c-.128.128-.288.192-.448.192s-.32-.064-.448-.192a.619.619 0 0 1 0-.896l4.48-4.48.096-.096c.032 0 .032-.032.064-.032s.032-.032.064-.032.032 0 .064-.032h.32c.032 0 .032 0 .064.032.032 0 .032 0 .064.032.032 0 .032.032.064.032 0 0 .032 0 .032.032l.096.096 4.448 4.448zM30.4 4.8v22.4c0 1.76-1.44 3.2-3.2 3.2H4.8a3.21 3.21 0 0 1-3.2-3.2V4.8c0-1.76 1.44-3.2 3.2-3.2h22.4c1.76 0 3.2 1.44 3.2 3.2zm-1.28 0c0-1.056-.864-1.92-1.92-1.92H4.8c-1.056 0-1.92.864-1.92 1.92v22.4c0 1.056.864 1.92 1.92 1.92h22.4c1.056 0 1.92-.864 1.92-1.92V4.8z"/></symbol></defs></svg>