<svg aria-hidden="true" style="position: absolute; width: 0; height: 0; overflow: hidden;" version="1.1" xmlns="http://www.w3.org/2000/svg" xmlns:xlink="http://www.w3.org/1999/xlink">
<defs>
<symbol id="icon-cross_icon" viewBox="0 0 32 32">
<path fill ="black" d="M17.886 16l8.39-8.391c0.521-0.521 0.521-1.365 0-1.885s-1.365-0.521-1.885 0l-8.391 8.39-8.39-8.39c-0.521-0.521-1.365-0.521-1.886 0s-0.521 1.365 0 1.885l8.391 8.391-8.391 8.391c-0.521 0.521-0.521 1.365 0 1.885 0.26 0.26 0.602 0.391 0.943 0.391s0.683-0.13 0.943-0.391l8.39-8.39 8.391 8.39c0.26 0.26 0.602 0.391 0.943 0.391s0.683-0.13 0.943-0.391c0.521-0.521 0.521-1.365 0-1.885l-8.39-8.391z"></path>
</symbol>
</defs>
</svg>
